<svg width="1000" height="250" viewBox="0 0 1000 250" fill="none" xmlns="http://www.w3.org/2000/svg">
<path d="M107.689 64.9273L106.114 72.6481L911.96 12.7059L913.624 4.8703L107.689 64.9273Z" fill="#7CD28A"/>
<path d="M68.4121 248.975L872.709 189.207L874.373 181.372L69.9634 241.269L68.4121 248.975Z" fill="#7CD28A"/>
<path fill-rule="evenodd" clip-rule="evenodd" d="M312.483 81.24L333.592 79.7652L320.247 143.282L301.764 144.563L292.288 188.431L272.55 189.792L282.067 145.938L264.845 147.134L278.224 83.6337L297.803 82.2658L288.557 126.346L303.224 125.358L312.483 81.24Z" fill="white"/>
<path fill-rule="evenodd" clip-rule="evenodd" d="M177.32 196.47L197.938 98.4389L199.931 88.9791L255.299 85.1106L246.768 125.589L232.698 192.62L177.32 196.47ZM201.132 175.22L215.796 174.239L219.994 153.754L230.02 106.437L215.344 107.439L201.132 175.22Z" fill="white"/>
<path d="M163.822 131.036L127.862 133.543L132.225 112.815L148.473 111.68L145.615 125.394L165.327 124.022L172.397 90.3417L116.726 94.2211L98.7364 95.4376L114.683 104.024L104.091 154.87L140.05 152.363L134.179 179.804L118.08 180.929L121.693 164.013L101.832 165.395L94.0068 202.281L149.678 198.401L163.822 131.036Z" fill="white"/>
<path d="M410.718 114.471L374.758 116.978L379.121 96.2497L395.369 95.1147L392.512 108.828L412.224 107.456L419.293 73.7762L363.622 77.6556L350.987 138.305L386.947 135.798L381.076 163.239L364.976 164.364L368.589 147.447L348.728 148.83L340.903 185.715L396.575 181.836L410.718 114.471Z" fill="#D5D5D5"/>
<path d="M439.009 92.1098L457.967 90.7891L439.461 178.876L459.171 177.496L477.679 89.4097L496.636 88.0892L500.849 68.1205L443.223 72.1428L439.009 92.1098Z" fill="#D5D5D5"/>
<path d="M536.057 105.45L540.269 85.0362L556.369 83.9113L552.154 104.328L536.057 105.45ZM557.57 170.623L580.293 62.5707L524.771 66.4481L502.051 174.5L521.762 173.121L531.842 125.566L547.941 124.441L537.861 171.998L557.57 170.623Z" fill="#D5D5D5"/>
<path d="M622.676 166.242L641.184 78.1549L660.142 76.8269L664.357 56.8636L606.73 60.886L602.518 80.8493L621.474 79.5288L602.968 167.615L622.676 166.242Z" fill="#D5D5D5"/>
<path d="M665.527 163.285L685.237 161.913L707.957 53.8613L688.247 55.2408L665.527 163.285Z" fill="#D5D5D5"/>
<path d="M749.907 70.7343L766.006 69.6097L751.71 137.734L735.612 138.859L749.907 70.7343ZM711.689 160.193L767.208 156.324L789.928 48.2719L734.407 52.1409L711.689 160.193Z" fill="#D5D5D5"/>
<path d="M813.4 153.28L823.778 104.199L832.805 151.922L849.958 150.725L872.682 42.6732L852.971 44.0528L842.587 93.8796L833.56 45.4051L816.407 46.6021L793.692 154.654L813.4 153.28Z" fill="#D5D5D5"/>
</svg>
